<svg width="19" height="18" viewBox="0 0 19 18" fill="none" xmlns="http://www.w3.org/2000/svg">
<g id="SVG" clip-path="url(#clip0_19_572)">
<path id="Vector" d="M16.5543 7.53113H15.9502V7.5H9.2002V10.5H13.4388C12.8204 12.2464 11.1588 13.5 9.2002 13.5C6.71507 13.5 4.7002 11.4851 4.7002 9C4.7002 6.51487 6.71507 4.5 9.2002 4.5C10.3473 4.5 11.3909 4.93275 12.1856 5.63963L14.3069 3.51825C12.9674 2.26988 11.1757 1.5 9.2002 1.5C5.05832 1.5 1.7002 4.85813 1.7002 9C1.7002 13.1419 5.05832 16.5 9.2002 16.5C13.3421 16.5 16.7002 13.1419 16.7002 9C16.7002 8.49712 16.6484 8.00625 16.5543 7.53113Z" fill="#FFC107"/>
<path id="Vector_2" d="M2.56495 5.50913L5.02907 7.31625C5.69582 5.6655 7.31057 4.5 9.2002 4.5C10.3473 4.5 11.3909 4.93275 12.1856 5.63963L14.3069 3.51825C12.9674 2.26988 11.1757 1.5 9.2002 1.5C6.31945 1.5 3.8212 3.12638 2.56495 5.50913Z" fill="#FF3D00"/>
<path id="Vector_3" d="M9.2002 16.5C11.1374 16.5 12.8977 15.7586 14.2286 14.553L11.9073 12.5887C11.129 13.1806 10.178 13.5008 9.2002 13.5C7.24945 13.5 5.59307 12.2561 4.96907 10.5203L2.52332 12.4046C3.76457 14.8335 6.28532 16.5 9.2002 16.5Z" fill="#4CAF50"/>
<path id="Vector_4" d="M16.5543 7.53113H15.9502V7.5H9.2002V10.5H13.4388C13.143 11.3312 12.6102 12.0574 11.9062 12.5891L11.9073 12.5884L14.2286 14.5526C14.0643 14.7019 16.7002 12.75 16.7002 9C16.7002 8.49712 16.6484 8.00625 16.5543 7.53113Z" fill="#1976D2"/>
</g>
<defs>
<clipPath id="clip0_19_572">
<rect width="18" height="18" fill="white" transform="translate(0.200195)"/>
</clipPath>
</defs>
</svg>
